<?xml version="1.0" standalone="no"?>
<!DOCTYPE svg PUBLIC "-//W3C//DTD SVG 20010904//EN"
 "http://www.w3.org/TR/2001/REC-SVG-20010904/DTD/svg10.dtd">
<svg version="1.0" xmlns="http://www.w3.org/2000/svg"
 width="500.000000pt" height="500.000000pt" viewBox="0 0 500.000000 500.000000"
 preserveAspectRatio="xMidYMid meet">
<metadata>
Created by potrace 1.14, written by Peter Selinger 2001-2017
</metadata>
<g transform="translate(0.000000,500.000000) scale(0.100000,-0.100000)"
fill="#000000" stroke="none">
<path d="M2360 4980 c-19 -10 -51 -24 -70 -31 -19 -6 -94 -40 -167 -75 -73
-35 -137 -64 -143 -64 -6 0 -9 -4 -5 -9 5 -10 -11 -24 -30 -27 -5 0 -16 -2
-23 -2 -6 -1 -11 -6 -10 -10 4 -13 -104 -112 -122 -112 -24 0 -110 -44 -109
-55 3 -24 -2 -34 -20 -40 -12 -4 -18 -12 -14 -21 3 -8 -1 -14 -9 -14 -8 0 -22
-18 -32 -40 -10 -22 -21 -40 -24 -40 -4 0 -22 -13 -40 -30 -25 -23 -43 -30
-73 -30 -22 0 -39 -5 -39 -11 0 -7 10 -9 25 -7 14 3 25 1 25 -3 0 -9 -16 -13
-34 -10 -15 3 -35 -20 -30 -34 4 -8 -5 -15 -25 -20 -17 -3 -30 -10 -29 -13 1
-4 -1 -29 -6 -55 -5 -33 -4 -53 5 -63 9 -11 8 -14 -3 -14 -15 0 -48 -34 -48
-50 0 -5 -9 -15 -20 -22 -11 -7 -20 -18 -20 -25 0 -7 -4 -13 -10 -13 -5 0 -10
-6 -10 -13 0 -7 -16 -30 -35 -51 -19 -21 -35 -41 -35 -44 0 -17 -54 -73 -66
-68 -8 3 -14 -1 -14 -9 0 -14 -12 -19 -72 -30 -21 -3 -38 -11 -38 -17 0 -6 -7
-19 -16 -29 -8 -9 -16 -29 -18 -45 -2 -17 -11 -30 -25 -35 -11 -5 -21 -11 -21
-15 0 -3 7 -3 16 0 13 5 15 1 10 -21 -12 -52 -51 -133 -63 -133 -7 0 -13 -6
-13 -14 0 -8 -9 -18 -20 -21 -11 -4 -18 -11 -14 -16 3 -5 10 -7 15 -4 5 4 9 1
9 -5 0 -6 -7 -13 -16 -17 -13 -5 -13 -7 -2 -14 10 -6 9 -11 -7 -23 -15 -11
-22 -11 -27 -3 -6 9 -8 9 -8 0 0 -18 -77 -93 -95 -93 -9 0 -18 -6 -21 -14 -4
-11 -17 -13 -53 -9 -31 3 -51 1 -55 -6 -4 -7 0 -11 11 -11 21 0 61 -25 53 -33
-3 -3 -27 -8 -55 -12 -27 -3 -51 -10 -53 -16 -2 -5 -9 -9 -16 -9 -7 0 -31 -14
-54 -32 -39 -30 -42 -36 -42 -78 0 -38 5 -51 29 -74 22 -21 36 -27 53 -23 26
7 58 -17 58 -45 0 -10 7 -18 15 -18 20 0 19 -17 -3 -29 -11 -7 -13 -10 -3 -11
10 0 11 -3 2 -13 -6 -8 -8 -17 -3 -21 4 -4 -1 -12 -11 -17 -9 -6 -17 -17 -17
-25 0 -8 -12 -26 -27 -39 -33 -29 -66 -34 -56 -9 5 15 0 16 -43 10 -49 -7 -79
-30 -70 -53 3 -7 1 -15 -3 -18 -13 -7 7 -84 29 -116 11 -15 20 -31 20 -36 0
-4 9 -14 21 -21 17 -11 19 -19 13 -45 -11 -45 -6 -181 6 -185 6 -2 10 -10 10
-18 0 -19 40 -27 70 -15 24 10 24 10 -7 10 -26 1 -32 6 -38 31 -9 42 8 161 23
159 19 -3 25 2 12 11 -22 13 -6 22 32 17 32 -4 32 -4 8 -13 -24 -8 -24 -9 10
-14 19 -3 34 -11 33 -17 -1 -6 11 -15 28 -18 24 -5 28 -10 19 -20 -6 -8 -21
-16 -33 -18 -12 -2 0 -5 27 -6 39 -1 47 -4 42 -16 -3 -9 0 -18 8 -21 11 -4 11
-10 2 -30 -6 -13 -14 -24 -18 -24 -5 0 -8 -7 -8 -16 0 -8 5 -12 10 -9 6 3 10
-1 10 -9 0 -8 -12 -16 -27 -19 -26 -4 -26 -4 5 -6 25 -1 32 -5 32 -21 0 -11
-4 -20 -9 -20 -5 0 -3 -17 4 -37 8 -21 16 -50 20 -65 3 -16 12 -28 20 -28 8 0
15 -7 15 -15 0 -9 10 -20 23 -25 26 -11 57 -35 57 -43 0 -10 -69 -39 -225 -97
-118 -44 -461 -198 -545 -245 l-25 -14 -2 -488 c-2 -451 -1 -489 15 -502 16
-13 16 -13 0 -8 -17 6 -18 -13 -18 -318 l0 -325 1301 0 1301 0 62 57 c79 73
168 143 182 143 6 0 17 -27 24 -60 7 -33 24 -78 39 -100 l25 -40 132 0 c97 0
134 3 137 13 4 9 6 9 6 0 1 -10 187 -13 896 -13 l895 0 0 588 0 589 -25 23
c-14 13 -25 29 -25 36 0 6 11 15 25 18 l25 6 0 421 0 420 -22 -1 c-46 -4 -59
1 -70 25 -9 20 -18 25 -47 25 -20 0 -49 -7 -65 -15 -31 -16 -46 -12 -46 12 0
12 -6 14 -27 8 -61 -15 -94 -17 -107 -6 -10 8 -16 5 -25 -12 -14 -26 -64 -49
-87 -40 -21 8 -13 37 11 41 11 2 36 16 55 30 19 15 41 26 50 27 8 0 48 17 88
38 75 39 88 62 36 62 -16 1 -35 4 -42 8 -7 5 -12 3 -12 -6 0 -7 -16 -21 -36
-31 -33 -15 -38 -15 -54 -1 -9 8 -22 15 -28 15 -16 0 -15 17 1 23 6 2 -1 8
-17 12 -17 5 -42 3 -61 -4 -17 -6 -36 -11 -43 -11 -6 0 -23 -5 -37 -10 -23 -9
-25 -13 -15 -26 9 -10 10 -18 3 -25 -7 -7 -15 -4 -26 11 -12 18 -19 20 -35 11
-12 -6 -33 -11 -48 -11 -22 0 -25 2 -14 15 18 22 -17 20 -72 -4 -49 -21 -123
-20 -165 3 l-26 13 44 24 c35 20 44 30 44 52 -1 19 4 27 16 27 10 0 22 13 28
31 16 47 14 58 -10 52 -19 -5 -20 -4 -10 16 7 11 18 21 26 21 19 0 20 42 3 70
-10 16 -10 24 0 40 15 24 16 50 2 50 -5 0 -10 -4 -10 -10 0 -16 -22 -12 -36 8
-7 9 -14 27 -14 40 0 13 -7 30 -15 38 -15 16 -21 104 -8 117 4 4 16 -12 28
-35 12 -24 31 -47 43 -53 21 -10 22 -16 4 -64 -4 -10 -1 -13 11 -8 12 4 17 1
17 -11 0 -14 4 -12 19 8 17 21 18 27 6 50 -7 14 -25 31 -39 38 -15 6 -36 31
-48 57 -12 25 -26 45 -30 45 -5 0 -13 12 -19 27 -7 20 -7 28 3 34 10 7 10 13
1 27 -22 36 -32 96 -24 133 5 21 5 43 0 50 -4 7 -5 18 -1 23 9 15 11 49 3 61
-12 17 -33 97 -27 102 11 12 -36 63 -70 75 -26 9 -37 20 -41 40 -3 16 -10 28
-15 28 -6 0 -7 7 -4 16 4 11 2 15 -8 11 -16 -6 -36 11 -36 32 0 8 -7 22 -16
32 -15 17 -15 21 3 58 11 22 18 43 15 46 -4 3 -7 34 -9 69 -1 34 -7 75 -13 91
-15 40 3 56 29 24 l20 -24 1 27 c0 15 -7 31 -17 36 -16 10 -25 43 -26 99 0 26
-4 32 -21 30 -15 -2 -22 6 -29 33 -5 19 -15 58 -22 85 -7 28 -13 57 -13 65 -1
8 -4 26 -8 39 -6 19 -4 23 8 19 11 -5 14 0 10 18 -3 18 -9 23 -22 19 -13 -4
-21 3 -30 24 -7 17 -15 29 -19 28 -9 -3 -101 100 -101 113 0 5 -9 11 -20 15
-16 5 -18 10 -9 33 7 18 7 28 0 30 -6 2 -11 9 -11 16 0 14 -55 48 -64 39 -3
-3 -6 -1 -6 6 0 14 -6 21 -75 76 -50 40 -87 62 -114 67 -8 2 -25 14 -37 28
-12 14 -26 21 -31 17 -4 -5 4 -19 20 -31 15 -12 27 -27 27 -33 0 -7 -12 -11
-27 -10 -22 2 -27 -2 -25 -15 4 -25 -16 -22 -60 8 -42 30 -46 41 -21 59 17 12
17 14 -2 35 -11 13 -36 30 -55 38 -35 15 -35 15 -10 22 27 8 26 9 -50 30 -25
7 -62 12 -83 11 -32 0 -45 6 -73 34 -37 38 -44 41 -62 23 -9 -9 -12 -7 -12 10
0 12 -6 22 -13 22 -8 0 -13 -9 -13 -20 1 -10 -3 -19 -9 -19 -5 0 -10 8 -9 19
0 17 -10 18 -175 19 -156 0 -180 -2 -211 -19z m397 -112 c29 2 39 -16 21 -35
-13 -13 -19 -11 -47 18 -18 18 -24 28 -14 24 10 -4 28 -7 40 -7z m-7 -98 c0
-5 -7 -10 -15 -10 -8 0 -15 5 -15 10 0 6 7 10 15 10 8 0 15 -4 15 -10z m67
-26 c13 -4 20 -10 17 -15 -8 -14 -57 -10 -78 6 -19 14 -18 15 10 15 16 0 39
-3 51 -6z m405 -115 c42 -34 49 -71 13 -78 -17 -3 -17 -1 -6 12 13 17 8 37
-11 37 -14 0 -68 40 -68 51 0 18 33 8 72 -22z m-292 11 c11 -7 7 -10 -18 -10
-20 0 -31 4 -27 10 8 13 26 13 45 0z m80 -21 c0 -5 -7 -9 -15 -9 -15 0 -20 12
-9 23 8 8 24 -1 24 -14z m-65 -39 c17 -19 17 -20 -9 -31 -14 -7 -26 -16 -26
-21 0 -21 -27 -4 -38 24 -9 25 -9 34 1 40 21 14 53 9 72 -12z m598 -53 c-3 -4
-6 -7 -7 -5 -1 2 -8 12 -16 22 -14 18 -14 18 7 6 12 -8 19 -18 16 -23z m-283
-25 c0 -13 -12 -22 -22 -16 -10 6 -1 24 13 24 5 0 9 -4 9 -8z m-294 -14 c22
-10 28 -10 32 0 5 16 37 15 71 -2 31 -16 84 -87 80 -108 -6 -32 14 -168 27
-179 10 -9 12 -4 8 23 -3 18 0 40 5 48 8 12 14 10 33 -11 74 -83 90 -124 64
-165 -13 -18 -14 -29 -6 -44 15 -28 32 -25 24 5 -4 16 -2 25 5 25 7 0 11 -16
10 -42 -2 -59 9 -216 16 -228 3 -5 8 -31 11 -57 10 -83 -8 -92 -171 -92 -72 0
-162 -26 -194 -55 -21 -19 -20 -184 2 -236 8 -19 20 -50 28 -67 7 -18 17 -33
21 -33 4 0 8 -7 8 -15 0 -8 6 -15 14 -15 7 0 19 -14 26 -31 7 -17 18 -36 24
-42 20 -20 2 -266 -22 -314 -23 -45 -69 -93 -88 -93 -8 0 -14 -7 -14 -15 0
-16 -42 -31 -59 -21 -13 9 -51 -15 -51 -31 0 -7 -5 -13 -11 -13 -5 0 -8 -4 -5
-9 3 -5 -1 -14 -9 -21 -8 -7 -15 -20 -15 -30 0 -16 -3 -16 -37 -4 -21 7 -61
13 -90 14 -29 0 -65 5 -80 11 -15 6 -37 15 -48 19 -11 5 -65 14 -120 20 -55 7
-119 21 -141 31 -39 18 -42 23 -48 70 -6 42 -10 50 -24 44 -9 -4 -35 -9 -57
-11 -58 -7 -88 -25 -100 -58 -8 -24 -6 -31 14 -47 13 -11 39 -19 60 -19 29 0
53 -12 116 -58 44 -33 86 -66 93 -75 17 -20 28 -87 14 -87 -13 0 -4 -61 11
-76 12 -11 34 -20 132 -54 31 -10 54 -25 60 -38 5 -12 13 -22 17 -22 4 0 5 -7
2 -15 -4 -8 -1 -15 5 -15 5 0 9 -14 8 -30 -1 -20 -6 -29 -15 -25 -7 3 -23 -2
-36 -10 -18 -12 -29 -13 -52 -5 -16 6 -31 16 -35 21 -6 11 -45 13 -102 5 -57
-7 -227 39 -252 68 -11 13 -30 26 -41 30 -12 4 -35 26 -50 49 -16 23 -31 44
-34 47 -4 3 -14 22 -23 42 -10 20 -22 40 -27 43 -6 3 -10 17 -10 30 0 13 -4
26 -9 29 -5 3 -11 18 -14 33 -3 16 -14 61 -26 100 -24 84 -25 92 -9 130 6 15
10 32 9 37 -4 18 -13 134 -16 206 -2 41 -10 122 -17 180 -17 141 -17 455 0
472 6 6 12 21 12 31 0 10 8 31 18 45 10 15 25 43 32 62 8 19 17 37 21 40 4 3
15 19 25 36 11 17 39 64 63 105 24 40 44 79 44 86 0 7 4 13 8 13 4 0 10 11 13
25 9 34 65 88 120 116 25 12 46 26 46 30 0 12 82 45 145 58 33 7 71 17 85 21
14 5 57 16 95 24 113 25 184 51 199 71 11 15 25 19 64 17 28 -1 54 3 57 8 8
13 28 13 61 -2z m809 -898 c3 -5 1 -10 -4 -10 -6 0 -11 5 -11 10 0 6 2 10 4
10 3 0 8 -4 11 -10z m-3173 -404 c14 -10 16 -23 12 -67 -3 -30 -8 -61 -11 -69
-4 -8 -5 -21 -4 -27 2 -14 -11 -17 -22 -7 -3 3 -29 8 -58 10 -28 2 -56 7 -61
10 -6 4 -7 25 -3 51 4 31 3 43 -4 38 -6 -3 -11 -2 -11 3 0 6 11 13 25 16 14 4
24 11 22 18 -1 6 18 17 43 24 58 16 52 15 72 0z m3443 4 c3 -5 1 -10 -4 -10
-6 0 -11 5 -11 10 0 6 2 10 4 10 3 0 8 -4 11 -10z m-130 -50 c3 -5 2 -10 -4
-10 -5 0 -13 5 -16 10 -3 6 -2 10 4 10 5 0 13 -4 16 -10z m35 -5 c0 -8 -4 -15
-10 -15 -5 0 -7 7 -4 15 4 8 8 15 10 15 2 0 4 -7 4 -15z m80 -71 c0 -14 -6
-24 -14 -24 -21 0 -25 11 -15 38 11 28 29 20 29 -14z m-383 -26 c-3 -8 -6 -5
-6 6 -1 11 2 17 5 13 3 -3 4 -12 1 -19z m-3047 -68 c0 -5 -9 -10 -21 -10 -11
0 -17 5 -14 10 3 6 13 10 21 10 8 0 14 -4 14 -10z m-197 -300 c-3 -11 0 -20 6
-20 6 0 11 -5 11 -12 0 -8 -6 -6 -16 4 -9 9 -14 24 -11 32 9 23 16 20 10 -4z
m3578 -119 c5 -57 -2 -143 -13 -154 -10 -12 -19 -10 -55 12 -24 14 -43 30 -43
35 0 4 14 39 31 76 30 65 33 68 55 57 13 -5 25 -17 25 -26z m-1547 20 c3 -5
18 -12 33 -16 53 -13 153 -66 153 -80 0 -21 -33 -19 -47 3 -8 13 -20 18 -40
15 -19 -3 -36 1 -46 11 -13 13 -35 21 -68 25 -14 2 -16 51 -3 51 7 0 15 -4 18
-9z m1866 -341 c0 -5 -12 -10 -27 -9 -25 0 -26 1 -8 9 27 12 35 12 35 0z m155
-10 c3 -5 1 -10 -4 -10 -6 0 -11 5 -11 10 0 6 2 10 4 10 3 0 8 -4 11 -10z
m-229 -15 c8 -21 -6 -41 -17 -24 -12 19 -11 39 1 39 6 0 13 -7 16 -15z m9 -71
c11 9 28 16 39 16 14 0 17 -5 12 -22 -3 -13 -6 -26 -6 -30 0 -4 -12 -5 -27 -3
-16 2 -32 4 -36 4 -11 1 -26 44 -19 56 3 5 9 0 12 -13 5 -21 7 -22 25 -8z
m-41 -66 c7 -28 0 -35 -46 -43 -31 -6 -38 -4 -38 9 0 9 8 20 18 23 9 4 23 13
30 20 19 19 29 16 36 -9z m526 -57 c0 -10 -40 -22 -52 -15 -18 11 -6 24 22 24
17 0 30 -4 30 -9z m-290 -25 c0 -2 -13 -18 -29 -36 -33 -38 -51 -26 -20 14 17
21 49 36 49 22z m110 -16 c0 -5 -7 -10 -15 -10 -8 0 -15 5 -15 10 0 6 7 10 15
10 8 0 15 -4 15 -10z m-430 -4 c0 -3 -4 -8 -10 -11 -5 -3 -10 -1 -10 4 0 6 5
11 10 11 6 0 10 -2 10 -4z m641 -17 c23 -12 16 -29 -11 -29 -21 0 -34 15 -25
30 8 13 12 12 36 -1z m229 -39 c0 -10 -7 -23 -16 -31 -13 -10 -21 -9 -47 6
-61 35 -52 54 23 47 30 -3 40 -8 40 -22z m-470 -134 c0 -58 -10 -69 -47 -55
-27 10 -30 34 -7 43 9 3 14 12 11 19 -5 13 20 47 35 47 4 0 8 -24 8 -54z m170
28 c0 -8 -4 -14 -10 -14 -5 0 -10 9 -10 21 0 11 5 17 10 14 6 -3 10 -13 10
-21z m-385 -94 c-3 -5 -11 -10 -16 -10 -6 0 -7 5 -4 10 3 6 11 10 16 10 6 0 7
-4 4 -10z m-233 -204 c6 -14 8 -32 4 -42 -6 -16 -8 -16 -21 2 -17 22 -20 64
-5 64 6 0 15 -11 22 -24z m118 -43 c0 -50 -12 -67 -39 -58 -22 7 -27 20 -11
30 6 3 10 14 10 24 0 18 18 41 32 41 4 0 8 -17 8 -37z m-3880 -3 c0 -5 -2 -10
-4 -10 -3 0 -8 5 -11 10 -3 6 -1 10 4 10 6 0 11 -4 11 -10z m3648 -51 c3 -25
0 -26 -37 -26 -33 0 -41 3 -41 18 0 43 73 51 78 8z m-3908 6 c0 -12 -19 -12
-23 0 -4 9 -1 12 9 8 7 -3 14 -7 14 -8z m4510 -20 c17 -9 30 -18 30 -22 0 -10
-82 -83 -93 -83 -11 0 -1 73 14 101 12 23 12 23 49 4z m-4330 -95 c0 -5 -9 -8
-19 -7 -10 0 -17 7 -14 13 5 13 33 8 33 -6z m204 -44 c-3 -9 -10 -13 -16 -10
-5 3 -4 12 3 20 15 18 22 13 13 -10z m3429 -81 c23 -48 22 -52 -13 -57 -26 -4
-30 -1 -30 19 0 13 5 23 10 23 6 0 8 11 4 25 -9 37 10 30 29 -10z m623 -27
c27 -13 30 -34 9 -62 -17 -22 -45 -15 -52 13 -3 12 -11 17 -19 14 -12 -4 -34
31 -34 54 0 7 67 -6 96 -19z m-3480 3 c7 6 21 9 31 7 14 -2 12 -6 -11 -21 -21
-14 -30 -16 -42 -6 -8 6 -14 16 -14 22 0 7 4 7 12 -1 8 -8 15 -8 24 -1z m3764
-41 c0 -21 -6 -25 -37 -27 -33 -2 -47 20 -20 30 22 9 57 7 57 -3z m-3900 -19
c0 -5 -11 -8 -24 -7 -13 0 -22 4 -19 9 6 10 43 9 43 -2z m-400 -15 c0 -3 -4
-8 -10 -11 -5 -3 -10 -1 -10 4 0 6 5 11 10 11 6 0 10 -2 10 -4z m3380 -80 c0
-2 -7 -9 -15 -16 -12 -10 -15 -10 -15 4 0 9 7 16 15 16 8 0 15 -2 15 -4z
m-3237 -36 c6 0 3 -8 -6 -17 -16 -16 -19 -16 -27 -3 -14 22 -12 33 6 26 9 -3
21 -6 27 -6z m3550 2 c3 -4 -3 -17 -13 -30 -19 -23 -19 -23 -30 -2 -6 11 -8
25 -5 30 7 12 42 13 48 2z m682 -1 c10 -17 -11 -21 -31 -6 -18 14 -18 14 3 15
12 0 24 -4 28 -9z m-3820 -36 c-28 -23 -30 -23 -48 -7 -17 15 -16 17 25 27 55
14 60 9 23 -20z m3873 19 c25 -7 30 -45 9 -63 -17 -13 -27 -5 -27 24 0 11 -5
26 -12 33 -13 13 -5 15 30 6z m-1075 -29 c-3 -8 -9 -15 -14 -15 -10 0 -12 24
-3 33 11 11 24 -3 17 -18z m668 2 c-13 -13 -26 -3 -16 12 3 6 11 8 17 5 6 -4
6 -10 -1 -17z m-3721 -27 c0 -5 -4 -10 -10 -10 -5 0 -10 5 -10 10 0 6 5 10 10
10 6 0 10 -4 10 -10z m-22 -12 c19 -19 14 -30 -8 -18 -11 6 -20 15 -20 20 0
14 14 12 28 -2z m38 -45 c-10 -10 -19 5 -10 18 6 11 8 11 12 0 2 -7 1 -15 -2
-18z m381 -4 c36 -22 34 -32 -5 -44 -21 -6 -22 -4 -16 21 6 23 4 26 -10 21
-10 -4 -16 -1 -16 8 0 20 6 19 47 -6z m2709 -60 c10 -17 -13 -36 -27 -22 -12
12 -4 33 11 33 5 0 12 -5 16 -11z m-183 -39 c-2 -46 -25 -67 -57 -52 -29 13
-26 42 4 42 11 0 20 10 24 26 9 36 31 24 29 -16z m871 15 c3 -8 12 -15 21 -15
8 0 15 -4 15 -10 0 -5 -9 -10 -19 -10 -11 0 -26 -3 -35 -6 -13 -5 -16 1 -16
25 0 33 23 44 34 16z m-274 -85 c-10 -19 -12 -19 -36 -4 -28 19 -27 38 3 42
12 2 24 13 28 25 7 20 8 19 12 -10 2 -18 -1 -41 -7 -53z m-440 36 c0 -21 -21
-31 -31 -15 -14 22 -11 29 11 29 11 0 20 -6 20 -14z m30 -36 c0 -5 -2 -10 -4
-10 -3 0 -8 5 -11 10 -3 6 -1 10 4 10 6 0 11 -4 11 -10z m-2954 -38 c-4 -3
-14 2 -24 12 -16 18 -16 18 6 6 13 -6 21 -14 18 -18z m-325 -39 c13 -16 12
-17 -3 -4 -17 13 -22 21 -14 21 2 0 10 -8 17 -17z m36 -25 c-3 -8 -6 -5 -6 6
-1 11 2 17 5 13 3 -3 4 -12 1 -19z m567 -53 c-7 -17 -20 -20 -28 -6 -7 10 3
21 20 21 8 0 11 -6 8 -15z m2285 -4 c34 -26 22 -51 -24 -51 -38 0 -40 5 -25
44 11 31 17 32 49 7z m-3349 -32 c0 -6 -4 -7 -10 -4 -5 3 -10 11 -10 16 0 6 5
7 10 4 6 -3 10 -11 10 -16z m3181 -11 c-11 -30 -37 -46 -51 -32 -8 8 -2 17 22
32 18 11 34 21 35 21 1 1 -1 -9 -6 -21z m-3147 -4 c21 -8 20 -17 -3 -31 -17
-10 -19 -9 -17 13 0 13 2 24 3 24 1 0 8 -3 17 -6z m866 -24 c0 -5 -5 -10 -11
-10 -5 0 -7 5 -4 10 3 6 8 10 11 10 2 0 4 -4 4 -10z m-367 -77 c-7 -2 -19 -2
-25 0 -7 3 -2 5 12 5 14 0 19 -2 13 -5z m3069 -9 c7 -5 6 -11 -4 -18 -15 -11
-18 -17 -18 -37 0 -5 -5 -7 -10 -4 -6 4 -9 14 -8 23 2 11 -4 17 -17 17 -25 1
-45 13 -45 27 0 11 82 4 102 -8z m-525 -44 c-4 -15 0 -19 16 -17 14 1 23 -5
25 -17 4 -17 0 -18 -39 -12 -54 9 -55 10 -39 41 16 30 45 34 37 5z m-2891 -54
c8 -8 10 -17 5 -20 -5 -4 -11 0 -14 6 -3 10 -7 10 -20 -1 -19 -15 -23 -1 -5
17 15 15 16 15 34 -2z m470 -31 c-8 -8 -18 -15 -22 -15 -3 0 -1 7 6 15 7 8 17
15 22 15 5 0 3 -7 -6 -15z m164 -55 c0 -5 -4 -10 -10 -10 -5 0 -10 5 -10 10 0
6 5 10 10 10 6 0 10 -4 10 -10z m-19 -27 c13 -15 12 -15 -8 -4 -24 12 -29 21
-14 21 5 0 15 -7 22 -17z m2512 -15 c7 -23 -5 -48 -24 -48 -11 0 -19 7 -19 15
0 8 5 15 10 15 6 0 10 7 10 15 0 18 17 20 23 3z m-433 -4 c0 -23 -35 -74 -51
-74 -25 0 -25 17 0 25 10 3 22 17 25 30 6 22 26 36 26 19z m-1640 -44 c0 -5
-5 -10 -11 -10 -5 0 -7 5 -4 10 3 6 8 10 11 10 2 0 4 -4 4 -10z m1780 -40 c0
-5 -4 -10 -10 -10 -5 0 -10 5 -10 10 0 6 5 10 10 10 6 0 10 -4 10 -10z"/>
<path d="M2180 3954 c-36 -15 -68 -32 -72 -38 -5 -8 -8 -7 -8 2 0 20 -28 14
-40 -9 -7 -11 -9 -23 -7 -26 3 -2 49 -8 102 -13 53 -4 101 -13 108 -18 7 -6
29 -13 50 -17 20 -4 37 -11 37 -16 0 -5 9 -9 20 -9 26 0 85 -24 130 -54 19
-12 63 -41 97 -63 34 -22 59 -43 56 -47 -3 -3 -2 -6 4 -6 6 0 13 -9 16 -20 5
-20 47 -29 47 -10 0 6 10 10 23 10 12 1 42 6 67 13 49 13 48 9 25 75 -4 12
-13 22 -20 22 -8 0 -26 13 -42 29 -16 15 -42 35 -58 44 -17 8 -54 31 -84 51
-29 20 -60 36 -68 36 -8 0 -39 11 -69 25 -30 14 -58 25 -63 25 -4 0 -21 7 -38
15 -17 8 -57 17 -89 20 -49 5 -70 1 -124 -21z"/>
<path d="M2128 3710 c-24 -14 -23 -47 1 -59 34 -19 196 -64 242 -68 43 -4 47
-3 59 26 15 36 33 39 54 9 12 -17 13 -25 4 -36 -10 -11 -8 -17 7 -28 10 -8 27
-14 38 -14 10 0 27 -4 37 -10 26 -14 34 14 15 53 -16 33 -32 44 -145 99 -60
29 -74 32 -180 35 -70 2 -122 -1 -132 -7z"/>
<path d="M2441 3052 c-9 -21 -11 -48 -7 -77 7 -40 12 -48 54 -72 37 -22 60
-28 107 -28 41 0 68 -6 85 -17 13 -10 41 -18 62 -18 32 0 41 -5 60 -34 26 -39
54 -52 62 -29 4 9 14 13 25 10 12 -3 24 5 35 24 10 16 22 29 28 29 7 0 3 6 -7
14 -11 8 -24 12 -31 9 -6 -2 -17 9 -23 25 -12 28 -16 30 -86 35 -41 4 -95 15
-122 25 -46 17 -95 17 -149 -1 -33 -11 -56 15 -69 78 l-11 58 -13 -31z"/>
<path d="M2290 2781 c0 -5 7 -11 15 -15 9 -3 15 0 15 9 0 8 -7 15 -15 15 -8 0
-15 -4 -15 -9z"/>
<path d="M538 3113 c6 -2 18 -2 25 0 6 3 1 5 -13 5 -14 0 -19 -2 -12 -5z"/>
<path d="M3810 4076 c0 -8 5 -18 10 -21 6 -3 10 3 10 14 0 12 -4 21 -10 21 -5
0 -10 -6 -10 -14z"/>
<path d="M1080 3900 c0 -5 5 -10 10 -10 6 0 10 5 10 10 0 6 -4 10 -10 10 -5 0
-10 -4 -10 -10z"/>
<path d="M1046 3865 c-26 -11 -27 -12 -8 -17 12 -4 26 0 33 8 17 20 9 23 -25
9z"/>
<path d="M3879 3815 c-12 -20 -8 -84 6 -112 l15 -28 -1 45 c-2 57 -13 108 -20
95z"/>
<path d="M3886 3623 c19 -46 41 -69 74 -78 l25 -7 -25 18 c-38 28 -59 57 -60
82 0 12 -6 22 -14 22 -13 0 -13 -5 0 -37z"/>
<path d="M3865 3541 c-3 -5 -1 -12 5 -16 5 -3 10 1 10 9 0 18 -6 21 -15 7z"/>
<path d="M455 3230 c-3 -5 -2 -10 4 -10 5 0 13 5 16 10 3 6 2 10 -4 10 -5 0
-13 -4 -16 -10z"/>
<path d="M488 2323 c7 -3 16 -2 19 1 4 3 -2 6 -13 5 -11 0 -14 -3 -6 -6z"/>
<path d="M4856 2282 c-8 -14 19 -37 47 -38 32 -2 34 6 9 29 -19 18 -48 22 -56
9z"/>
</g>
</svg>
